<svg xmlns="http://www.w3.org/2000/svg" width="521.709" height="706.687" viewBox="0 0 521.709 706.687">
  <g id="erc_logo_mahmouuud" data-name="erc logo mahmouuud" transform="translate(-48.8 -26)">
    <g id="Group_2" data-name="Group 2" transform="translate(49.306 694.78)">
      <g id="Group_1" data-name="Group 1">
        <path id="Path_1" data-name="Path 1" d="M51.025,307.307H66.719v2.531H50.772v14.429h16.96v2.784H49V290.6H67.732v2.784H51.025v13.922Z" transform="translate(-49 -289.587)" fill="#fff" stroke="#fff" stroke-miterlimit="10" stroke-width="0.381"/>
        <path id="Path_2" data-name="Path 2" d="M82.641,294.55,72.263,315.813H71.5L61.125,294.55v32.4H59.1V290.5h2.531L72.01,311.763,82.135,290.5h2.531v36.451H82.641Z" transform="translate(-33.533 -289.741)" fill="#fff" stroke="#fff" stroke-miterlimit="10" stroke-width="0.381"/>
        <path id="Path_3" data-name="Path 3" d="M72.4,326.951V290.5h2.025v36.451Z" transform="translate(-13.167 -289.741)" fill="#fff" stroke="#fff" stroke-miterlimit="10" stroke-width="0.381"/>
        <path id="Path_4" data-name="Path 4" d="M97.816,326.951H95.032l-9.366-13.922H78.325v13.922H76.3V290.5H88.2c5.822,0,8.86,5.569,8.86,11.391s-2.784,11.138-8.86,11.138ZM78.325,310.5h9.619c4.81,0,6.835-3.544,6.835-8.607,0-4.3-2.025-8.607-6.581-8.607H78.325Z" transform="translate(-7.194 -289.741)" fill="#fff" stroke="#fff" stroke-miterlimit="10" stroke-width="0.381"/>
        <path id="Path_5" data-name="Path 5" d="M110.254,326.951l-3.038-8.86h-16.2l-3.038,8.86H85.7L97.85,290.5h2.278l12.15,36.451Zm-3.8-11.391-7.341-22.276L91.775,315.56Z" transform="translate(7.2 -289.741)" fill="#fff" stroke="#fff" stroke-miterlimit="10" stroke-width="0.381"/>
        <path id="Path_6" data-name="Path 6" d="M105.672,293.031H95.8V290.5h21.516v2.531h-9.872v33.92h-2.025v-33.92Z" transform="translate(22.667 -289.741)" fill="#fff" stroke="#fff" stroke-miterlimit="10" stroke-width="0.381"/>
        <path id="Path_7" data-name="Path 7" d="M108.978,307.307h15.947v2.531H108.978v14.429h16.96v2.784H106.7V290.6h18.732v2.784H108.725v13.922Z" transform="translate(39.358 -289.587)" fill="#fff" stroke="#fff" stroke-miterlimit="10" stroke-width="0.381"/>
        <path id="Path_8" data-name="Path 8" d="M135.585,298.047c-2.025-4.3-5.063-4.81-8.1-5.063-3.291,0-8.1,1.519-8.1,7.341,0,4.556,3.8,5.822,8.353,6.835,5.316,1.266,10.632,2.531,10.632,10.378,0,8.353-6.075,10.125-10.632,10.125a11.6,11.6,0,0,1-11.138-7.847l1.772-1.266a9.98,9.98,0,0,0,9.113,6.581c3.291,0,8.607-1.266,8.607-7.594,0-5.569-4.556-6.581-8.86-7.847-5.063-1.266-10.125-2.784-10.125-9.366,0-7.594,5.822-10.125,10.379-10.125,3.8,0,7.341.759,9.872,6.328Z" transform="translate(54.519 -290.2)" fill="#fff" stroke="#fff" stroke-miterlimit="10" stroke-width="0.381"/>
        <path id="Path_9" data-name="Path 9" d="M154.116,326.951h-2.785l-9.366-13.922h-7.341v13.922H132.6V290.5h11.9c5.822,0,8.86,5.569,8.86,11.391s-2.784,11.138-8.86,11.138ZM134.625,310.5h9.619c4.81,0,6.835-3.544,6.835-8.607,0-4.3-2.025-8.607-6.581-8.607h-9.872Z" transform="translate(79.02 -289.741)" fill="#eb3627" stroke="#eb3627" stroke-miterlimit="10" stroke-width="0.381"/>
        <path id="Path_10" data-name="Path 10" d="M145.378,307.307h15.947v2.531H145.378v14.429h16.96v2.784H143.1V290.6h18.732v2.784H145.378Z" transform="translate(95.099 -289.587)" fill="#eb3627" stroke="#eb3627" stroke-miterlimit="10" stroke-width="0.381"/>
        <path id="Path_11" data-name="Path 11" d="M176.082,308.323c.253,9.366-4.3,18.732-13.669,18.732H153.3V290.6h9.113C171.526,290.35,176.082,299.21,176.082,308.323Zm-20.757-15.188V324.27h7.088c8.1,0,11.644-8.1,11.644-15.947,0-7.594-3.8-15.188-11.644-15.188Z" transform="translate(110.719 -289.591)" fill="#eb3627" stroke="#eb3627" stroke-miterlimit="10" stroke-width="0.381"/>
        <path id="Path_12" data-name="Path 12" d="M193.095,322.195c-2.784,3.544-6.328,5.569-9.872,5.569-9.113,0-13.922-8.607-13.922-18.479s4.556-18.985,13.922-18.985c3.544,0,7.088,1.772,9.872,5.569l-1.519,1.772a10.493,10.493,0,0,0-8.353-4.556c-7.847,0-11.9,7.594-11.9,16.2s4.05,15.947,11.9,15.947a10.494,10.494,0,0,0,8.353-4.556Z" transform="translate(135.22 -290.047)" fill="#fff" stroke="#fff" stroke-miterlimit="10" stroke-width="0.381"/>
        <path id="Path_13" data-name="Path 13" d="M202.916,326.951h-2.784l-9.366-13.922h-7.341v13.922H181.4V290.5h11.9c5.822,0,8.86,5.569,8.86,11.391s-2.785,11.138-8.86,11.138ZM183.425,310.5h9.619c4.81,0,6.835-3.544,6.835-8.607,0-4.3-2.025-8.607-6.582-8.607h-9.872Z" transform="translate(153.749 -289.741)" fill="#fff" stroke="#fff" stroke-miterlimit="10" stroke-width="0.381"/>
        <path id="Path_14" data-name="Path 14" d="M194.278,307.307h15.947v2.531H194.278v14.429h16.96v2.784H192V290.6h18.732v2.784H194.025v13.922Z" transform="translate(169.982 -289.587)" fill="#fff" stroke="#fff" stroke-miterlimit="10" stroke-width="0.381"/>
        <path id="Path_15" data-name="Path 15" d="M220.985,298.047c-2.025-4.3-5.063-4.81-8.1-5.063-3.291,0-8.1,1.519-8.1,7.341,0,4.556,3.8,5.822,8.353,6.835,5.316,1.266,10.632,2.531,10.632,10.378,0,8.353-6.075,10.125-10.632,10.125A11.6,11.6,0,0,1,202,319.817l1.772-1.266a9.98,9.98,0,0,0,9.113,6.581c3.291,0,8.607-1.266,8.607-7.594,0-5.569-4.556-6.581-8.86-7.847-5.063-1.266-10.125-2.784-10.125-9.366,0-7.594,5.822-10.125,10.379-10.125,3.8,0,7.341.759,9.872,6.328Z" transform="translate(185.295 -290.2)" fill="#fff" stroke="#fff" stroke-miterlimit="10" stroke-width="0.381"/>
        <path id="Path_16" data-name="Path 16" d="M236.195,322.195c-2.784,3.544-6.328,5.569-9.872,5.569-9.113,0-13.922-8.607-13.922-18.479s4.556-18.985,13.922-18.985c3.544,0,7.088,1.772,9.872,5.569l-1.519,1.772a10.493,10.493,0,0,0-8.353-4.556c-7.847,0-11.9,7.594-11.9,16.2s4.05,15.947,11.9,15.947a10.494,10.494,0,0,0,8.353-4.556Z" transform="translate(201.221 -290.047)" fill="#fff" stroke="#fff" stroke-miterlimit="10" stroke-width="0.381"/>
        <path id="Path_17" data-name="Path 17" d="M226.678,307.307h15.947v2.531H226.678v14.429h16.96v2.784H224.4V290.6h18.732v2.784H226.425v13.922Z" transform="translate(219.597 -289.587)" fill="#fff" stroke="#fff" stroke-miterlimit="10" stroke-width="0.381"/>
        <path id="Path_18" data-name="Path 18" d="M235.759,290.5l18.226,30.123V290.5h2.025v36.451h-.759l-18.226-30.123v30.123H235V290.5Z" transform="translate(235.829 -289.741)" fill="#fff" stroke="#fff" stroke-miterlimit="10" stroke-width="0.381"/>
        <path id="Path_19" data-name="Path 19" d="M255.372,293.031H245.5V290.5h21.516v2.531h-9.872v33.92h-2.025v-33.92Z" transform="translate(251.908 -289.741)" fill="#fff" stroke="#fff" stroke-miterlimit="10" stroke-width="0.381"/>
      </g>
    </g>
    <g id="Group_3" data-name="Group 3" transform="translate(271.558 270.874)">
      <path id="Path_20" data-name="Path 20" d="M361.583,176.233a1.109,1.109,0,0,1-.759-.253c-.253-.253-.506-.506-.506-1.772v-16.96a22.56,22.56,0,0,0-7.088-16.96,23.114,23.114,0,0,0-17.213-7.088,23.511,23.511,0,0,0-17.213,7.088,22.952,22.952,0,0,0-7.088,16.96v3.038a1.2,1.2,0,0,0,1.266,1.266h4.05a1.2,1.2,0,0,0,1.266-1.266v-3.038a17.718,17.718,0,0,1,17.719-17.466,18.231,18.231,0,0,1,12.657,5.063,16.864,16.864,0,0,1,5.316,12.4v16.96a4.934,4.934,0,0,0,.253,2.025H211.221a25.738,25.738,0,0,0,3.291-13.416,26.014,26.014,0,0,0-6.075-17.213,22.713,22.713,0,0,0-6.835-5.316,18.259,18.259,0,0,0-16.96,0,22.712,22.712,0,0,0-6.835,5.316,26.013,26.013,0,0,0-6.075,17.213,29.2,29.2,0,0,0,3.291,13.416H153.507V135.478a1.2,1.2,0,0,0-1.266-1.266h-4.05a1.2,1.2,0,0,0-1.266,1.266v49.614c0,2.278-1.013,4.05-3.038,5.822a10.849,10.849,0,0,1-6.075,2.531,1.158,1.158,0,0,0-1.013,1.266v4.05a1.919,1.919,0,0,0,.506,1.013.93.93,0,0,0,.759.253h0a17.99,17.99,0,0,0,10.125-4.05,13.38,13.38,0,0,0,5.063-10.632v-2.278h27.085a17.761,17.761,0,0,0,4.05,2.531,19.3,19.3,0,0,0,17.213,0,21.861,21.861,0,0,0,4.05-2.531H361.836A1.2,1.2,0,0,0,363.1,181.8v-4.05Q362.722,176.233,361.583,176.233ZM207.931,162.817a21.961,21.961,0,0,1-1.266,7.088,18.421,18.421,0,0,1-3.291,5.822,17.733,17.733,0,0,1-4.81,3.8,11.759,11.759,0,0,1-5.822,1.519,12.6,12.6,0,0,1-7.341-2.278,17.964,17.964,0,0,1-5.569-6.581,21.837,21.837,0,0,1-2.025-9.113,19.162,19.162,0,0,1,4.556-12.91c3.038-3.544,6.328-5.316,10.632-5.316a12.836,12.836,0,0,1,10.379,5.316A18.07,18.07,0,0,1,207.931,162.817Z" transform="translate(-136.8 -106.715)" fill="#ed1c24"/>
      <path id="Path_21" data-name="Path 21" d="M236.852,138.084H248.5a1.2,1.2,0,0,0,1.266-1.266v-3.544a1.2,1.2,0,0,0-1.266-1.266h-5.063a1.315,1.315,0,0,1-1.013-.506,1.934,1.934,0,0,1-.506-1.266c0-.506.253-.759.506-1.266a1.419,1.419,0,0,1,2.278,0,4.792,4.792,0,0,0,1.519,1.013.77.77,0,0,0,1.013,0c.253,0,.506-.506.759-.759L249,126.187a1.113,1.113,0,0,0-.253-1.266,7.253,7.253,0,0,0-10.378,0,6.5,6.5,0,0,0-2.025,5.063,3.754,3.754,0,0,0,.253,1.772c-.506.253-.759.506-.759,1.013v3.544C235.587,137.578,236.093,138.084,236.852,138.084Z" transform="translate(14.763 -122.737)" fill="#ed1c24"/>
      <path id="Path_22" data-name="Path 22" d="M238.566,130.6a1.2,1.2,0,0,0-1.266,1.266v45.311a1.2,1.2,0,0,0,1.266,1.266h4.05a1.2,1.2,0,0,0,1.266-1.266V131.866a1.2,1.2,0,0,0-1.266-1.266Z" transform="translate(17.1 -110.696)" fill="#ed1c24"/>
      <path id="Path_23" data-name="Path 23" d="M274.8,126.7h-4.3a1.2,1.2,0,0,0-1.266,1.266v57.968h-37.97A1.2,1.2,0,0,0,230,187.2v4.05a1.2,1.2,0,0,0,1.266,1.266h43.286a1.2,1.2,0,0,0,1.266-1.266V127.713A1.089,1.089,0,0,0,274.8,126.7Z" transform="translate(5.921 -116.669)" fill="#ed1c24"/>
      <path id="Path_24" data-name="Path 24" d="M257.416,126.7h-4.05a1.2,1.2,0,0,0-1.266,1.266V191.5a1.2,1.2,0,0,0,1.266,1.266h4.05a1.2,1.2,0,0,0,1.266-1.266V127.966A1.2,1.2,0,0,0,257.416,126.7Z" transform="translate(39.763 -116.669)" fill="#ed1c24"/>
    </g>
    <g id="Group_4" data-name="Group 4" transform="translate(271.811 174.337)">
      <path id="Path_25" data-name="Path 25" d="M159.122,198.9h-4.556a1.2,1.2,0,0,0-1.266,1.266v5.569A1.2,1.2,0,0,0,154.566,207h4.556a1.2,1.2,0,0,0,1.266-1.266v-5.569A1.356,1.356,0,0,0,159.122,198.9Z" transform="translate(-111.786 90.432)" fill="#fff"/>
      <path id="Path_26" data-name="Path 26" d="M153.822,198.9h-4.556A1.2,1.2,0,0,0,148,200.166v5.569A1.2,1.2,0,0,0,149.266,207h4.556a1.2,1.2,0,0,0,1.266-1.266v-5.569A1.356,1.356,0,0,0,153.822,198.9Z" transform="translate(-119.902 90.432)" fill="#fff"/>
      <path id="Path_27" data-name="Path 27" d="M182.475,172.4h-4.81a1.2,1.2,0,0,0-1.266,1.266v5.569a1.2,1.2,0,0,0,1.266,1.266h4.81a1.2,1.2,0,0,0,1.266-1.266v-5.569A1.356,1.356,0,0,0,182.475,172.4Z" transform="translate(-76.412 49.852)" fill="#fff"/>
      <path id="Path_28" data-name="Path 28" d="M177.175,180.5a1.2,1.2,0,0,0,1.266-1.266v-5.569a1.2,1.2,0,0,0-1.266-1.266h-4.81a1.2,1.2,0,0,0-1.266,1.266v5.569a1.2,1.2,0,0,0,1.266,1.266Z" transform="translate(-84.528 49.852)" fill="#fff"/>
      <path id="Path_29" data-name="Path 29" d="M235.416,177.6h-4.05a1.2,1.2,0,0,0-1.266,1.266V219.62H211.115V196.838a18.733,18.733,0,0,0-5.316-13.416,16.359,16.359,0,0,0-12.657-5.569H185.3a1.2,1.2,0,0,0-1.266,1.266v40.755H170.361a30.419,30.419,0,0,1-18.985-6.075c-5.063-4.05-7.594-8.607-7.594-13.922V186.46a1.2,1.2,0,0,0-1.266-1.266h-4.05a1.2,1.2,0,0,0-1.266,1.266v13.416a22.2,22.2,0,0,0,2.785,10.632,29.565,29.565,0,0,0,7.341,8.607,37.185,37.185,0,0,0,10.379,5.569,37.87,37.87,0,0,0,11.9,2.025h19.491a1.2,1.2,0,0,0,1.266-1.266V184.688h2.531a9.112,9.112,0,0,1,5.569,1.772,12.487,12.487,0,0,1,4.3,4.556,13.724,13.724,0,0,1,1.519,6.328v28.1a1.2,1.2,0,0,0,1.266,1.266h29.11a1.2,1.2,0,0,0,1.266-1.266v-46.07C236.682,178.106,235.922,177.6,235.416,177.6Z" transform="translate(-136.441 57.815)" fill="#fff"/>
      <path id="Path_30" data-name="Path 30" d="M188.616,170.8h-4.05a1.2,1.2,0,0,0-1.266,1.266V235.6a1.2,1.2,0,0,0,1.266,1.266h4.05a1.2,1.2,0,0,0,1.266-1.266V172.066C189.628,171.306,189.122,170.8,188.616,170.8Z" transform="translate(-65.846 47.402)" fill="#fff"/>
      <path id="Path_31" data-name="Path 31" d="M205.341,177.6h-4.05a1.2,1.2,0,0,0-1.266,1.266V228.48a7.093,7.093,0,0,1-3.038,5.822,10.849,10.849,0,0,1-6.075,2.531A1.158,1.158,0,0,0,189.9,238.1v4.05a1.919,1.919,0,0,0,.506,1.013.93.93,0,0,0,.759.253h0a17.99,17.99,0,0,0,10.125-4.05,13.38,13.38,0,0,0,5.063-10.632V179.119A1.138,1.138,0,0,0,205.341,177.6Z" transform="translate(-55.739 57.815)" fill="#fff"/>
      <path id="Path_32" data-name="Path 32" d="M255.936,194.088a18.259,18.259,0,0,0-16.96,0,22.71,22.71,0,0,0-6.835,5.316,26.013,26.013,0,0,0-6.075,17.213,29.2,29.2,0,0,0,3.291,13.416H206.828V172.066a1.2,1.2,0,0,0-1.266-1.266h-3.8a1.2,1.2,0,0,0-1.266,1.266V235.6a1.2,1.2,0,0,0,1.266,1.266h33.161a17.761,17.761,0,0,0,4.05,2.531,20.441,20.441,0,0,0,8.607,2.025,21.369,21.369,0,0,0,8.607-2.025,22.712,22.712,0,0,0,6.835-5.316,27.423,27.423,0,0,0,0-34.426A23.679,23.679,0,0,0,255.936,194.088Zm6.328,22.529A21.961,21.961,0,0,1,261,223.7a18.421,18.421,0,0,1-3.291,5.822,17.732,17.732,0,0,1-4.81,3.8,12.4,12.4,0,0,1-11.9-.253l-1.266-.759a15.355,15.355,0,0,1-5.316-6.582,21.838,21.838,0,0,1-2.025-9.113,19.162,19.162,0,0,1,4.556-12.91c3.038-3.544,6.328-5.316,10.632-5.316a12.836,12.836,0,0,1,10.379,5.316A20.34,20.34,0,0,1,262.265,216.617Z" transform="translate(-39.507 47.402)" fill="#fff"/>
      <path id="Path_33" data-name="Path 33" d="M242.516,222.442a1.2,1.2,0,0,0,1.266-1.266V175.866a1.2,1.2,0,0,0-1.266-1.266h-4.05a1.2,1.2,0,0,0-1.266,1.266v45.311a1.2,1.2,0,0,0,1.266,1.266Z" transform="translate(16.693 53.221)" fill="#fff"/>
      <path id="Path_34" data-name="Path 34" d="M274.552,170.8H270.5a1.2,1.2,0,0,0-1.266,1.266v57.968h-37.97A1.2,1.2,0,0,0,230,231.3v4.05a1.2,1.2,0,0,0,1.266,1.266h43.286a1.2,1.2,0,0,0,1.266-1.266V171.813A1.158,1.158,0,0,0,274.552,170.8Z" transform="translate(5.668 47.402)" fill="#fff"/>
      <path id="Path_35" data-name="Path 35" d="M247.957,208.256h-5.063a1.756,1.756,0,0,1-1.519-1.772c0-.506.253-.759.506-1.266a1.419,1.419,0,0,1,2.278,0l.253.253c.253,0,.506.253,1.266.759a1.522,1.522,0,0,0,1.013.253,1.141,1.141,0,0,0,.759-.759l1.013-3.038a1.113,1.113,0,0,0-.253-1.266c-3.544-3.038-7.594-2.784-10.379,0a6.5,6.5,0,0,0-2.025,5.063,3.753,3.753,0,0,0,.253,1.772,1.169,1.169,0,0,0-.759,1.266v3.544a1.2,1.2,0,0,0,1.266,1.266H248.21a1.2,1.2,0,0,0,1.266-1.266v-3.544A1.6,1.6,0,0,0,247.957,208.256Z" transform="translate(13.784 90.948)" fill="#fff"/>
      <path id="Path_36" data-name="Path 36" d="M257.416,170.8h-4.05a1.2,1.2,0,0,0-1.266,1.266V235.6a1.2,1.2,0,0,0,1.266,1.266h4.05a1.2,1.2,0,0,0,1.266-1.266V172.066A1.356,1.356,0,0,0,257.416,170.8Z" transform="translate(39.51 47.402)" fill="#fff"/>
      <path id="Path_37" data-name="Path 37" d="M147.279,157a37.186,37.186,0,0,0,10.379,5.569,37.871,37.871,0,0,0,11.9,2.025h10.885a1.2,1.2,0,0,0,1.266-1.266V85.866a1.2,1.2,0,0,0-1.266-1.266h-4.05a1.2,1.2,0,0,0-1.266,1.266v71.89h-5.063a30.419,30.419,0,0,1-18.985-6.075c-5.063-4.05-7.594-8.607-7.594-13.922V124.342a1.2,1.2,0,0,0-1.266-1.266h-4.05a1.2,1.2,0,0,0-1.266,1.266v13.416a22.2,22.2,0,0,0,2.785,10.632A35.041,35.041,0,0,0,147.279,157Z" transform="translate(-136.9 -84.6)" fill="#fff"/>
      <path id="Path_38" data-name="Path 38" d="M167.066,136.189h4.05a1.2,1.2,0,0,0,1.266-1.266V89.866a1.2,1.2,0,0,0-1.266-1.266h-4.05a1.2,1.2,0,0,0-1.266,1.266v45.311A1.158,1.158,0,0,0,167.066,136.189Z" transform="translate(-92.644 -78.475)" fill="#fff"/>
      <path id="Path_39" data-name="Path 39" d="M384.142,84.6h-4.3a1.2,1.2,0,0,0-1.266,1.266v57.968H359.842V124.6a22.56,22.56,0,0,0-7.088-16.96,23.114,23.114,0,0,0-17.213-7.088,23.511,23.511,0,0,0-17.213,7.088,1.223,1.223,0,0,0,0,1.772l2.784,2.784a1.223,1.223,0,0,0,1.772,0,16.792,16.792,0,0,1,12.657-5.063,17.2,17.2,0,0,1,12.4,5.063,16.864,16.864,0,0,1,5.316,12.4v19.238h-8.353a17.192,17.192,0,0,0,3.8-11.391c0-5.316-1.772-9.619-5.569-12.91-7.088-6.581-15.441-6.581-22.529,0-3.8,3.291-5.569,7.594-5.569,12.91a17.192,17.192,0,0,0,3.8,11.391H204.417V85.866a1.2,1.2,0,0,0-1.266-1.266H199.1a1.2,1.2,0,0,0-1.266,1.266v57.968h-37.97A1.2,1.2,0,0,0,158.6,145.1v4.05a1.2,1.2,0,0,0,1.266,1.266H384.142a1.2,1.2,0,0,0,1.266-1.266V85.866C385.155,85.359,384.649,84.6,384.142,84.6Zm-42.02,48.1a10.877,10.877,0,0,1-3.291,8.353A12,12,0,0,1,332,144.087,11.287,11.287,0,0,1,321.618,132.7a10.244,10.244,0,0,1,3.544-8.353,9.208,9.208,0,0,1,13.669,0A10.877,10.877,0,0,1,342.122,132.7Z" transform="translate(-103.67 -84.6)" fill="#fff"/>
      <path id="Path_40" data-name="Path 40" d="M257.416,84.6h-4.05a1.2,1.2,0,0,0-1.266,1.266V149.4a1.2,1.2,0,0,0,1.266,1.266h4.05a1.2,1.2,0,0,0,1.266-1.266V85.866A1.356,1.356,0,0,0,257.416,84.6Z" transform="translate(39.51 -84.6)" fill="#fff"/>
    </g>
    <rect id="Rectangle_1" data-name="Rectangle 1" width="519.431" height="1.772" transform="translate(49.813 656.051)" fill="#eb3627"/>
    <path id="Path_41" data-name="Path 41" d="M450.892,497.909a238.03,238.03,0,0,1-67.334,9.872c-112.9,0-207.57-78.472-232.377-183.522v-.506a199.466,199.466,0,0,1-4.05-22.023,258.007,258.007,0,0,1-2.025-31.389,282.04,282.04,0,0,1,1.772-29.617c1.013-7.594,2.278-14.935,3.8-22.276,1.519-7.088,3.544-13.922,5.569-20.757,2.025-6.075,4.3-12.15,6.581-18.226a232.392,232.392,0,0,1,40.755-65.309A240.169,240.169,0,0,1,221.3,95.933c10.379-9.619,31.135-24.807,30.123-24.3,1.266-.759,2.278-1.519,3.544-2.278,4.556-3.038,9.366-5.822,13.922-8.353a245.694,245.694,0,0,0-79.231,34.932,208.259,208.259,0,0,0-23.541,18.226h0c-1.013,1.013-2.025,1.772-3.038,2.784,1.013-.759,2.278-1.266,3.291-2.025a247.688,247.688,0,0,0-52.4,64.549q-4.936,8.733-9.113,18.226c-3.038,6.835-5.822,13.669-8.353,20.757a224.947,224.947,0,0,0-6.581,22.276,234.424,234.424,0,0,0-6.581,61.258c.253,7.341.759,14.935,1.519,22.276.253,3.038.759,6.075,1.266,9.113a243.092,243.092,0,0,0,14.176,52.9C141.056,488.8,248.385,553.6,362.3,536.386A245.4,245.4,0,0,0,471.9,490.822C465.068,493.353,457.98,495.884,450.892,497.909Z" transform="translate(52.789 53.597)" fill="#ed1c24"/>
    <path id="Path_42" data-name="Path 42" d="M524.439,544.418a244.255,244.255,0,0,1-43.033,25.567,239.3,239.3,0,0,1-66.574,20C300.921,607.2,193.593,542.393,152.838,439.874a243.093,243.093,0,0,1-14.175-52.9c-.506-3.038-.759-6.075-1.266-9.113-.759-7.594-1.266-14.935-1.519-22.276a245.743,245.743,0,0,1,6.581-61.258,224.954,224.954,0,0,1,6.581-22.276c2.531-7.088,5.316-13.922,8.353-20.757q4.177-9.113,9.113-18.226a243.6,243.6,0,0,1,52.4-64.549c-1.013.759-2.278,1.266-3.291,2.025,1.013-1.013,2.025-1.772,3.038-2.784h0a233.708,233.708,0,0,1,23.541-18.226A238.064,238.064,0,0,1,321.425,114.6a232.948,232.948,0,0,1,90.116-27.845c8.1-.759,15.947-1.266,24.3-1.266A237.543,237.543,0,0,1,570,126.747a298.269,298.269,0,0,0-403.243-40.5A293.082,293.082,0,0,0,105,149.529q-6.455,8.733-12.15,18.226a312.616,312.616,0,0,0-30.123,65.309c-2.025,6.075-3.544,12.15-5.063,18.226-1.772,6.835-3.038,13.669-4.3,20.757-1.266,7.341-2.278,14.935-3.038,22.276-1.013,9.113-1.266,18.479-1.519,27.845a295.9,295.9,0,0,0,2.025,33.414c.759,7.594,2.025,14.935,3.291,22.276.506,3.291,1.266,6.582,2.025,9.872A301.936,301.936,0,0,0,76.9,448.481a294.389,294.389,0,0,0,35.186,57.208c2.278,4.3,17.213,20,17.719,20.5A315.087,315.087,0,0,0,161.7,555.3c5.316,4.05,11.391,9.113,17.466,12.91h.253l.253.253h0a307.7,307.7,0,0,0,58.474,30.882,290.462,290.462,0,0,0,72.9,18.226,309.422,309.422,0,0,0,79.484-.506,283.4,283.4,0,0,0,55.69-13.416,256.074,256.074,0,0,0,29.87-12.4c1.772-.759,3.544-1.772,5.316-2.531,2.531-1.266,4.81-2.531,7.088-3.8,3.544-2.025,7.088-3.8,10.632-5.822a.884.884,0,0,0,.506-.253c2.784-1.772,5.822-3.544,8.607-5.316a293.256,293.256,0,0,0,62.271-53.411,211.6,211.6,0,0,1-33.92,18.985C532.539,541.128,528.489,542.646,524.439,544.418Z" transform="translate(0 0)" fill="#c4161c"/>
  </g>
</svg>
